<svg xmlns="http://www.w3.org/2000/svg" width="39" height="39" viewBox="0 0 39 39"><path d="M3019.728,198.651 L2993.531,198.651 C2990.072,198.651 2987.258,195.843 2987.258,192.391 L2987.258,166.26 C2987.258,162.808 2990.072,160 2993.531,160 L3019.728,160 C3023.186,160 3026,162.808 3026,166.26 L3026,192.392 C3026,195.844 3023.186,198.651 3019.728,198.651 Z M3000.34908,191.953213 L3000.35688,191.953213 L3000.35688,175.281347 L2995.17129,175.281347 L2995.17129,191.953213 L3000.34908,191.953213 Z M2997.76018,173.004367 C2999.42113,173.004367 3000.76237,171.663132 3000.76237,170.002183 C3000.76237,168.349033 2999.41333,167 2997.76018,167 C2996.09924,167 2994.758,168.349033 2994.758,170.002183 C2994.758,171.655334 2996.09924,173.004367 2997.76018,173.004367 Z M3019.758,191.953213 L3019.758,182.814099 C3019.758,178.32252 3018.78327,174.86806 3013.54309,174.86806 C3011.02438,174.86806 3009.33224,176.248284 3008.63822,177.558328 L3008.56804,177.558328 L3008.56804,175.281347 L3003.60079,175.281347 L3003.60079,191.953213 L3008.77859,191.953213 L3008.77859,183.703057 C3008.77859,181.527449 3009.19187,179.422021 3011.88994,179.422021 C3014.54122,179.422021 3014.58021,181.909545 3014.58021,183.843419 L3014.58021,191.953213 L3019.758,191.953213 Z" transform="translate(-2987 -160)"/></svg>